<svg xmlns="http://www.w3.org/2000/svg" viewBox="0 0 64 64" role="img" aria-labelledby="title">
  <title>DonationTracker Icon</title>
  <defs>
    <linearGradient id="bg" x1="0%" y1="0%" x2="100%" y2="100%">
      <stop offset="0%" stop-color="#0F172A" />
      <stop offset="100%" stop-color="#1E293B" />
    </linearGradient>
    <linearGradient id="heart" x1="0%" y1="0%" x2="100%" y2="100%">
      <stop offset="0%" stop-color="#38BDF8" />
      <stop offset="100%" stop-color="#0EA5E9" />
    </linearGradient>
  </defs>
  <rect width="64" height="64" rx="16" fill="url(#bg)" />
  <path fill="url(#heart)" d="M32 46.5c-.7 0-1.5-.2-2.1-.7-6.9-5.5-11.9-9.7-14.5-13.1-1.6-2.1-3-4.8-3-7.8 0-5.8 4.4-10.2 10-10.2 2.8 0 5.5 1.2 7.6 3.4 2.1-2.2 4.8-3.4 7.6-3.4 5.6 0 10 4.4 10 10.2 0 3-.9 5.7-3 7.8-2.6 3.4-7.6 7.6-14.5 13.1-.6.5-1.4.7-2.1.7Z" />
  <path fill="rgba(255,255,255,0.16)" d="M20 18h24c1.1 0 2 .9 2 2v2c0 1.1-.9 2-2 2H20c-1.1 0-2-.9-2-2v-2c0-1.1.9-2 2-2Z" />
  <path fill="rgba(255,255,255,0.1)" d="M24 52h16c1.1 0 2-.9 2-2v-1c0-1.1-.9-2-2-2H24c-1.1 0-2 .9-2 2v1c0 1.1.9 2 2 2Z" />
</svg>

